Patient4_TMGait_0pt8_01_right_27_GRF.mot
version=1
nRows=26
nColumns=19
inDegrees=no
endheader
time	F1x	F1y	F1z	M1x	M1y	M1z	F2x	F2y	F2z	M2x	M2y	M2z	EC1x	EC1y	EC1z	EC2x	EC2y	EC2z
30.2	3.6157	731.1588	52.7462	-243.5245	-60.7846	804.3172	-1.4832	-2.6487	-20.3076	5.9208	13.3333	3.1437	-0.0592	0.0182	-0.0073	-0.0462	0.0165	0.9585
30.2108	4.8121	735.0939	56.1418	-245.6731	-61.6399	804.4633	-0.97121	-0.60801	-13.8367	4.4749	9.1124	3.6059	-0.0592	0.0182	-0.0073	-0.0462	0.0165	0.9585
30.2216	6.4689	739.6731	59.1773	-247.8768	-62.1895	804.7691	-0.57803	1.1511	-8.2949	3.2401	5.5109	4.071	-0.0592	0.0182	-0.0073	-0.0462	0.0165	0.9585
30.2324	8.5675	744.2628	61.664	-249.8722	-62.3491	804.7305	-0.30099	2.5375	-4.0261	2.3021	2.7435	4.4982	-0.0592	0.0182	-0.0073	-0.0462	0.0165	0.9585
30.2431	11.0347	748.1668	63.5169	-251.4231	-62.0708	803.78	-0.1442	3.5729	-1.0446	1.667	0.82268	4.9026	-0.0592	0.0182	-0.0073	-0.0462	0.0165	0.9585
30.2539	13.7557	750.7443	64.7923	-252.3378	-61.407	801.3583	-0.080437	4.2946	0.82375	1.2894	-0.36706	5.2702	-0.0592	0.0182	-0.0073	-0.0462	0.0165	0.9585
30.2647	16.5936	751.541	65.5616	-252.5006	-60.4219	797.0908	-0.10419	4.7755	1.8201	1.1077	-0.97537	5.6167	-0.0592	0.0182	-0.0073	-0.0462	0.0165	0.9585
30.2755	19.4538	750.3525	65.9594	-251.8823	-59.229	790.8247	-0.18793	5.0263	2.1953	1.042	-1.1649	5.858	-0.0592	0.0182	-0.0073	-0.0462	0.0165	0.9585
30.2863	22.2472	747.2091	66.0962	-250.5301	-57.9173	782.6384	-0.32015	5.0636	2.17	1.0209	-1.0718	5.9498	-0.0592	0.0182	-0.0073	-0.0462	0.0165	0.9585
30.2971	24.9748	742.3621	66.0687	-248.5571	-56.5497	772.8188	-0.47945	4.8329	1.9014	0.96796	-0.79032	5.7639	-0.0592	0.0182	-0.0073	-0.0462	0.0165	0.9585
30.3079	27.6444	736.2117	65.9565	-246.1179	-55.1724	761.8062	-0.64556	4.2625	1.5151	0.81615	-0.40039	5.1717	-0.0592	0.0182	-0.0073	-0.0462	0.0165	0.9585
30.3186	30.3317	729.2513	65.7864	-243.393	-53.773	750.1224	-0.78287	3.248	1.0796	0.50195	0.047078	3.9952	-0.0592	0.0182	-0.0073	-0.0462	0.0165	0.9585
30.3294	33.097	722.0214	65.6175	-240.5592	-52.3761	738.3291	-0.86226	1.7007	0.64967	-0.022773	0.49657	2.0935	-0.0592	0.0182	-0.0073	-0.0462	0.0165	0.9585
30.3402	36.0027	715.0605	65.4715	-237.7823	-50.9792	726.9468	-0.82773	-0.43405	0.26637	-0.78281	0.87717	-0.61368	-0.0592	0.0182	-0.0073	-0.0462	0.0165	0.9585
30.351	39.0873	708.884	65.3942	-235.2102	-49.6048	716.5097	-0.61756	-3.1112	-0.022155	-1.7572	1.0898	-4.0664	-0.0592	0.0182	-0.0073	-0.0462	0.0165	0.9585
30.3618	42.325	703.93	65.417	-232.959	-48.2819	707.4805	-0.15323	-6.1178	-0.14629	-2.855	1.0026	-7.9906	-0.0592	0.0182	-0.0073	-0.0462	0.0165	0.9585
30.3726	45.6446	700.4902	65.5655	-231.0915	-47.0509	700.1838	0.67739	-8.9594	-0.00256	-3.8764	0.43793	-11.7541	-0.0592	0.0182	-0.0073	-0.0462	0.0165	0.9585
30.3834	48.901	698.6903	65.8895	-229.6144	-46.0018	694.8027	1.9414	-10.7718	0.54785	-4.4776	-0.81743	-14.2356	-0.0592	0.0182	-0.0073	-0.0462	0.0165	0.9585
30.3941	51.9583	698.5656	66.4341	-228.5137	-45.2242	691.4029	3.7142	-10.2119	1.669	-4.1287	-2.9981	-13.7092	-0.0592	0.0182	-0.0073	-0.0462	0.0165	0.9585
30.4049	54.7082	700.1063	67.2541	-227.7788	-44.8084	690.0039	5.9324	-5.4163	3.5291	-2.1003	-6.2936	-7.7713	-0.0592	0.0182	-0.0073	-0.0462	0.0165	0.9585
30.4157	57.1726	703.1977	68.3393	-227.4021	-44.7457	690.4551	8.4278	5.9882	6.2516	2.526	-10.7822	6.6352	-0.0592	0.0182	-0.0073	-0.0462	0.0165	0.9585
30.4265	59.4625	707.5	69.6209	-227.3389	-44.9371	692.3807	10.7528	26.6509	9.8632	10.7655	-16.3084	32.9651	-0.0592	0.0182	-0.0073	-0.0462	0.0165	0.9585
30.4373	61.8374	712.2812	70.9193	-227.4446	-45.1392	694.9546	12.1763	59.0781	14.1679	23.5572	-22.3041	74.4926	-0.0592	0.0182	-0.0073	-0.0462	0.0165	0.9585
30.4481	64.5444	716.162	71.9766	-227.3704	-45.028	696.7179	11.5141	104.8459	18.6351	41.4503	-27.5914	133.3528	-0.0592	0.0182	-0.0073	-0.0462	0.0165	0.9585
30.4589	67.7762	717.0052	72.4863	-226.5126	-44.2522	695.4989	7.1617	163.5028	22.2315	64.1785	-30.203	209.1075	-0.0592	0.0182	-0.0073	-0.0462	0.0165	0.9585
30.4696	71.4551	712.105	72.1392	-224.0654	-42.5459	688.6605	-2.4478	231.7532	23.5706	90.3451	-27.7915	297.7098	-0.0592	0.0182	-0.0073	-0.0462	0.0165	0.9585
